<?xml version="1.0" standalone="no"?>
<!DOCTYPE svg PUBLIC "-//W3C//DTD SVG 20010904//EN"
 "http://www.w3.org/TR/2001/REC-SVG-20010904/DTD/svg10.dtd">
<svg version="1.0" xmlns="http://www.w3.org/2000/svg"
 width="96.000000pt" height="96.000000pt" viewBox="0 0 96.000000 96.000000"
 preserveAspectRatio="xMidYMid meet">
<metadata>
Created by potrace 1.14, written by Peter Selinger 2001-2017
</metadata>
<g transform="translate(0.000000,96.000000) scale(0.100000,-0.100000)"
fill="#000000" stroke="none">
<path d="M358 951 c-15 -5 -29 -7 -32 -4 -3 3 -12 -2 -21 -11 -9 -9 -25 -16
-36 -16 -10 0 -19 -3 -19 -8 0 -4 -13 -13 -28 -20 -30 -13 -140 -112 -125
-112 4 0 3 -4 -3 -8 -15 -10 -63 -88 -68 -109 -1 -10 -7 -27 -12 -38 -11 -25
-12 -228 -1 -275 4 -19 13 -40 19 -47 6 -7 8 -13 4 -13 -8 0 44 -83 58 -92 6
-4 7 -8 2 -8 -5 0 18 -24 50 -54 32 -30 62 -52 66 -50 4 3 8 1 8 -3 0 -11 52
-37 105 -54 22 -7 46 -17 53 -22 8 -6 12 -5 12 4 0 11 2 12 9 1 9 -15 171 -15
171 -1 0 5 3 8 8 8 4 -1 9 -1 12 1 3 1 16 3 29 6 14 2 30 9 38 15 7 6 13 8 13
4 0 -5 8 -2 18 6 9 8 29 21 45 29 37 18 129 105 120 113 -3 4 -2 7 3 7 6 0 21
19 34 43 24 41 26 46 29 68 0 5 5 8 11 4 5 -3 9 5 8 17 -2 42 2 59 11 54 13
-8 14 164 1 179 -6 7 -10 17 -9 21 1 5 0 11 -1 14 -1 3 -3 13 -5 24 -7 34 -27
76 -38 76 -6 0 -7 3 -4 6 8 8 -24 64 -35 64 -4 0 -8 5 -8 11 0 16 -102 109
-112 103 -4 -3 -8 0 -8 6 0 11 -44 33 -70 35 -8 0 -14 5 -13 11 2 12 -7 13
-152 19 -60 2 -122 0 -137 -4z m231 -60 c11 -7 21 -9 21 -5 0 3 11 -1 25 -10
14 -9 29 -14 34 -11 5 2 12 -2 15 -11 4 -9 9 -14 13 -10 3 3 12 -3 20 -14 8
-11 18 -20 24 -20 20 0 112 -120 112 -147 0 -7 6 -13 12 -13 7 0 11 -11 10
-25 -2 -14 0 -25 4 -25 10 0 11 -16 13 -116 1 -44 -2 -89 -7 -100 -4 -10 -10
-27 -11 -36 -2 -9 -13 -33 -24 -52 -11 -20 -17 -36 -15 -36 3 0 -3 -8 -14 -19
-10 -10 -23 -25 -27 -33 -13 -22 -127 -108 -135 -102 -4 2 -10 0 -14 -6 -4 -6
-11 -8 -16 -5 -5 4 -9 1 -9 -4 0 -6 -3 -10 -7 -10 -5 1 -10 0 -13 -1 -37 -14
-195 -18 -225 -5 -11 4 -28 10 -38 12 -39 7 -149 78 -169 108 -3 5 -18 24 -32
40 -14 17 -26 36 -26 43 0 6 -5 12 -11 12 -5 0 -7 5 -4 10 3 6 2 10 -3 10 -5
0 -9 7 -10 15 -1 8 -3 22 -4 30 -1 8 -5 15 -9 15 -9 0 -10 8 -10 123 -1 48 3
93 8 100 5 7 9 19 8 27 -1 8 7 27 17 42 10 14 18 29 18 33 0 19 85 116 94 108
3 -4 6 -2 6 4 0 9 60 53 80 58 3 1 12 4 20 7 79 29 103 34 176 32 45 -1 91 -7
103 -13z"/>
<path d="M243 597 c-26 -11 -31 -47 -8 -47 8 0 15 -4 15 -8 0 -5 14 -7 30 -6
17 1 30 -2 30 -7 0 -5 3 -8 8 -7 4 0 16 -3 27 -7 19 -8 29 -18 73 -70 9 -11
17 -32 17 -47 -1 -16 3 -28 8 -28 5 0 7 -6 4 -14 -7 -18 28 -52 38 -36 3 5 11
7 17 4 6 -4 6 1 -1 14 -7 14 -8 23 -1 27 7 4 7 12 0 24 -5 10 -7 21 -4 24 7 7
-42 86 -72 114 -32 32 -86 61 -120 65 -16 1 -31 6 -34 9 -3 4 -15 2 -27 -4z"/>
<path d="M636 588 c-9 -5 -16 -6 -16 -3 0 12 -81 -39 -94 -61 -13 -19 -13 -24
1 -43 l15 -23 31 31 c16 18 32 29 35 26 3 -3 11 0 18 6 7 5 25 12 41 15 47 8
64 15 58 25 -4 5 -1 9 6 9 10 0 10 3 1 12 -14 14 -74 18 -96 6z"/>
</g>
</svg>
